<svg width="100%" viewBox="0 0 680 280" role="img" xmlns="http://www.w3.org/2000/svg">
<defs>
  <linearGradient id="bgGrad" x1="0" y1="0" x2="1" y2="1">
    <stop offset="0%" stop-color="#04071d"/>
    <stop offset="100%" stop-color="#1a0533"/>
  </linearGradient>
  <linearGradient id="lineGrad" x1="0" y1="0" x2="1" y2="0">
    <stop offset="0%" stop-color="#7c3aed" stop-opacity="0"/>
    <stop offset="30%" stop-color="#a855f7"/>
    <stop offset="70%" stop-color="#7c3aed"/>
    <stop offset="100%" stop-color="#a855f7" stop-opacity="0"/>
  </linearGradient>
  <linearGradient id="glowLeft" x1="0" y1="0" x2="1" y2="1">
    <stop offset="0%" stop-color="#7c3aed" stop-opacity="0.25"/>
    <stop offset="100%" stop-color="#7c3aed" stop-opacity="0"/>
  </linearGradient>
  <linearGradient id="glowRight" x1="1" y1="0" x2="0" y2="1">
    <stop offset="0%" stop-color="#a855f7" stop-opacity="0.2"/>
    <stop offset="100%" stop-color="#a855f7" stop-opacity="0"/>
  </linearGradient>
</defs>
<rect width="680" height="280" fill="url(#bgGrad)" rx="12"/>
<circle cx="80" cy="80" r="130" fill="url(#glowLeft)"/>
<circle cx="600" cy="200" r="120" fill="url(#glowRight)"/>
<line x1="0" y1="70" x2="680" y2="70" stroke="#7c3aed" stroke-width="0.3" opacity="0.2"/>
<line x1="0" y1="140" x2="680" y2="140" stroke="#7c3aed" stroke-width="0.3" opacity="0.15"/>
<line x1="0" y1="210" x2="680" y2="210" stroke="#7c3aed" stroke-width="0.3" opacity="0.1"/>
<line x1="170" y1="0" x2="170" y2="280" stroke="#7c3aed" stroke-width="0.3" opacity="0.15"/>
<line x1="340" y1="0" x2="340" y2="280" stroke="#7c3aed" stroke-width="0.3" opacity="0.1"/>
<line x1="510" y1="0" x2="510" y2="280" stroke="#7c3aed" stroke-width="0.3" opacity="0.15"/>
<circle cx="40" cy="240" r="3" fill="#a855f7" opacity="0.6"/>
<circle cx="56" cy="240" r="2" fill="#7c3aed" opacity="0.4"/>
<circle cx="640" cy="40" r="3" fill="#a855f7" opacity="0.6"/>
<circle cx="624" cy="40" r="2" fill="#7c3aed" opacity="0.4"/>
<path d="M28 28 L28 50 M28 28 L50 28" stroke="#7c3aed" stroke-width="1.5" fill="none" opacity="0.7"/>
<path d="M652 28 L652 50 M652 28 L630 28" stroke="#7c3aed" stroke-width="1.5" fill="none" opacity="0.7"/>
<path d="M28 252 L28 230 M28 252 L50 252" stroke="#7c3aed" stroke-width="1.5" fill="none" opacity="0.7"/>
<path d="M652 252 L652 230 M652 252 L630 252" stroke="#7c3aed" stroke-width="1.5" fill="none" opacity="0.7"/>
<rect x="290" y="36" width="100" height="20" rx="10" fill="#7c3aed" opacity="0.3"/>
<text x="340" y="50" font-family="monospace" font-size="10" fill="#c084fc" text-anchor="middle">PORTAFOLIO 2026</text>
<text x="340" y="118" font-family="'Arial Black', sans-serif" font-size="38" fill="white" text-anchor="middle" font-weight="900" letter-spacing="2">HIROSHI BEGAZO</text>
<rect x="190" y="126" width="300" height="2" rx="1" fill="url(#lineGrad)"/>
<text x="340" y="158" font-family="monospace" font-size="14" fill="#c084fc" text-anchor="middle" letter-spacing="3">FULL STACK DEVELOPER</text>
<rect x="92" y="178" width="72" height="22" rx="11" fill="#1e1040" stroke="#7c3aed" stroke-width="0.8"/>
<text x="128" y="193" font-family="monospace" font-size="10" fill="#a78bfa" text-anchor="middle">React</text>
<rect x="172" y="178" width="72" height="22" rx="11" fill="#1e1040" stroke="#7c3aed" stroke-width="0.8"/>
<text x="208" y="193" font-family="monospace" font-size="10" fill="#a78bfa" text-anchor="middle">Next.js</text>
<rect x="252" y="178" width="72" height="22" rx="11" fill="#1e1040" stroke="#7c3aed" stroke-width="0.8"/>
<text x="288" y="193" font-family="monospace" font-size="10" fill="#a78bfa" text-anchor="middle">TypeScript</text>
<rect x="332" y="178" width="72" height="22" rx="11" fill="#1e1040" stroke="#7c3aed" stroke-width="0.8"/>
<text x="368" y="193" font-family="monospace" font-size="10" fill="#a78bfa" text-anchor="middle">Tailwind</text>
<rect x="412" y="178" width="72" height="22" rx="11" fill="#1e1040" stroke="#7c3aed" stroke-width="0.8"/>
<text x="448" y="193" font-family="monospace" font-size="10" fill="#a78bfa" text-anchor="middle">Node.js</text>
<rect x="492" y="178" width="72" height="22" rx="11" fill="#1e1040" stroke="#7c3aed" stroke-width="0.8"/>
<text x="528" y="193" font-family="monospace" font-size="10" fill="#a78bfa" text-anchor="middle">PostgreSQL</text>
<rect x="140" y="218" width="400" height="0.8" rx="1" fill="url(#lineGrad)" opacity="0.5"/>
<text x="240" y="240" font-family="monospace" font-size="10" fill="#6d28d9" text-anchor="middle">Lima, Peru</text>
<text x="340" y="240" font-family="monospace" font-size="10" fill="#4c1d95" text-anchor="middle">·</text>
<text x="440" y="240" font-family="monospace" font-size="10" fill="#6d28d9" text-anchor="middle">github.com/chagipe</text>
</svg>
