<?xml version="1.0" standalone="no"?>
<!DOCTYPE svg PUBLIC "-//W3C//DTD SVG 20010904//EN"
 "http://www.w3.org/TR/2001/REC-SVG-20010904/DTD/svg10.dtd">
<svg version="1.0" xmlns="http://www.w3.org/2000/svg"
 width="512.000000pt" height="512.000000pt" viewBox="0 0 512.000000 512.000000"
 preserveAspectRatio="xMidYMid meet">

<g transform="translate(0.000000,512.000000) scale(0.100000,-0.100000)"
fill="#000000" stroke="none">
<path d="M3725 2781 c-82 -14 -136 -31 -212 -69 -128 -63 -219 -154 -277 -277
-46 -96 -60 -163 -60 -280 2 -231 101 -418 289 -545 85 -58 181 -106 385 -195
254 -111 330 -172 345 -276 15 -103 -32 -184 -134 -233 -63 -30 -72 -31 -191
-31 -123 0 -126 1 -200 36 -88 43 -149 94 -210 177 -39 54 -46 60 -64 50 -30
-15 -350 -200 -356 -205 -20 -18 145 -224 233 -291 107 -81 262 -145 417 -173
100 -18 325 -16 416 4 390 87 599 358 554 720 -39 317 -196 472 -690 682 -74
31 -157 70 -185 85 -65 37 -123 97 -135 141 -14 48 -12 124 4 162 17 43 76 93
123 106 55 16 143 13 196 -5 54 -18 130 -82 167 -141 l27 -42 74 49 c41 27
122 80 182 118 l107 69 -48 69 c-100 141 -222 231 -372 274 -83 24 -296 35
-385 21z"/>
<path d="M2308 1903 l-3 -858 -27 -55 c-46 -93 -130 -131 -256 -116 -96 11
-163 63 -233 180 -19 31 -36 55 -39 54 -3 -2 -90 -55 -193 -118 l-187 -114 27
-46 c80 -138 179 -232 308 -295 154 -74 312 -98 491 -75 175 22 290 75 399
184 79 79 122 156 157 283 22 77 23 86 26 956 l3 877 -235 0 -235 0 -3 -857z"/>
</g>
</svg>
