<?xml version="1.0" standalone="no"?>
<!DOCTYPE svg PUBLIC "-//W3C//DTD SVG 20010904//EN"
 "http://www.w3.org/TR/2001/REC-SVG-20010904/DTD/svg10.dtd">
<svg version="1.0" xmlns="http://www.w3.org/2000/svg"
 width="3840.000000pt" height="3784.000000pt" viewBox="0 0 3840.000000 3784.000000"
 preserveAspectRatio="xMidYMid meet">

<g transform="translate(0.000000,3784.000000) scale(0.100000,-0.100000)"
fill="#000000" stroke="none">
<path d="M36975 33379 c-82 -61 -197 -146 -255 -188 -58 -43 -865 -638 -1795
-1322 -929 -685 -2337 -1721 -3129 -2304 -791 -583 -1440 -1064 -1441 -1070
-1 -5 -7 -41 -13 -79 -7 -42 -26 -101 -51 -153 -23 -47 -41 -86 -41 -88 0 -2
685 501 1523 1117 837 617 1718 1266 1958 1442 239 177 1138 839 1998 1471
l1562 1150 -71 68 c-40 37 -77 67 -83 67 -7 0 -79 -50 -162 -111z"/>
<path d="M35020 31654 c-1257 -926 -2638 -1944 -3070 -2261 -431 -318 -998
-735 -1258 -928 l-475 -350 -1571 -3135 c-2189 -4366 -5786 -11541 -7392
-14745 -1369 -2733 -1405 -2802 -1567 -3023 -100 -135 -279 -203 -447 -168
-188 39 -330 168 -375 341 -23 92 -19 141 39 425 30 146 271 1314 536 2595
264 1282 618 2996 786 3810 168 814 310 1506 314 1538 25 171 -60 349 -212
448 -80 51 -164 72 -269 67 -76 -4 -191 -37 -1209 -348 l-1125 -344 -115 -1
c-113 0 -117 1 -194 38 -177 84 -294 284 -271 462 4 37 310 1549 564 2792 6
31 5 41 -3 36 -10 -6 -1172 -862 -3251 -2393 -341 -251 -1074 -791 -1630
-1200 -1510 -1111 -1510 -1111 -1513 -1120 -2 -5 128 -240 289 -522 671 -1178
3479 -6105 5296 -9293 357 -627 881 -1545 1163 -2040 282 -495 529 -925 549
-955 53 -81 175 -200 264 -258 253 -165 594 -193 877 -73 157 67 313 197 402
336 25 39 896 1591 1935 3450 2106 3766 2827 5056 6576 11760 1430 2558 2875
5143 3212 5745 824 1473 4385 7843 4947 8850 248 443 484 864 525 937 140 249
176 345 194 513 23 223 -63 502 -204 662 l-32 36 -2285 -1684z"/>
<path d="M17585 19101 c-217 -160 -1154 -851 -2595 -1911 -503 -371 -1246
-917 -1650 -1215 -537 -395 -1815 -1336 -2148 -1581 -2 -1 20 -43 48 -92 l52
-91 91 68 c249 183 1001 737 2507 1846 910 670 1952 1437 2315 1705 363 267
854 628 1091 803 l431 318 30 149 c17 83 30 150 29 150 -1 -1 -91 -67 -201
-149z"/>
</g>
</svg>
